<svg xmlns="http://www.w3.org/2000/svg" viewBox="0 0 200 132">
<defs>
  <filter id="gs" x="-80%" y="-80%" width="260%" height="260%">
    <feGaussianBlur in="SourceGraphic" stdDeviation="2.5" result="b"/>
    <feMerge><feMergeNode in="b"/><feMergeNode in="SourceGraphic"/></feMerge>
  </filter>
  <filter id="gm" x="-130%" y="-130%" width="360%" height="360%">
    <feGaussianBlur in="SourceGraphic" stdDeviation="5" result="b"/>
    <feMerge><feMergeNode in="b"/><feMergeNode in="b"/><feMergeNode in="SourceGraphic"/></feMerge>
  </filter>
  <filter id="gl" x="-200%" y="-200%" width="500%" height="500%">
    <feGaussianBlur in="SourceGraphic" stdDeviation="10" result="b"/>
    <feMerge><feMergeNode in="b"/><feMergeNode in="b"/><feMergeNode in="b"/><feMergeNode in="SourceGraphic"/></feMerge>
  </filter>

  <!-- Body gradients – purple tinted -->
  <linearGradient id="gbody" x1="0" y1="0" x2="0.1" y2="1">
    <stop offset="0%" stop-color="#1e1a38"/>
    <stop offset="50%" stop-color="#141228"/>
    <stop offset="100%" stop-color="#0c0a1c"/>
  </linearGradient>
  <linearGradient id="ggrip" x1="0" y1="0" x2="0" y2="1">
    <stop offset="0%" stop-color="#13102a"/>
    <stop offset="100%" stop-color="#060510"/>
  </linearGradient>
  <linearGradient id="gbump" x1="0" y1="0" x2="0" y2="1">
    <stop offset="0%" stop-color="#28224a"/>
    <stop offset="100%" stop-color="#181530"/>
  </linearGradient>
  <linearGradient id="gtl" x1="0.2" y1="1" x2="0" y2="0">
    <stop offset="0%" stop-color="#1c1838"/>
    <stop offset="100%" stop-color="#10102a"/>
  </linearGradient>
  <linearGradient id="gtr" x1="0.8" y1="1" x2="1" y2="0">
    <stop offset="0%" stop-color="#1c1838"/>
    <stop offset="100%" stop-color="#10102a"/>
  </linearGradient>
  <radialGradient id="gwell" cx="40%" cy="35%" r="65%">
    <stop offset="0%" stop-color="#0a0818"/>
    <stop offset="100%" stop-color="#05040e"/>
  </radialGradient>
  <radialGradient id="gstick" cx="30%" cy="30%" r="70%">
    <stop offset="0%" stop-color="#1e1a38"/>
    <stop offset="100%" stop-color="#0c0a20"/>
  </radialGradient>

  <!-- Buttons – UNCHANGED -->
  <radialGradient id="gxbox" cx="30%" cy="25%" r="70%">
    <stop offset="0%" stop-color="#00ff90"/>
    <stop offset="100%" stop-color="#009a50"/>
  </radialGradient>
  <radialGradient id="gby" cx="32%" cy="28%" r="68%">
    <stop offset="0%" stop-color="#d4a820"/>
    <stop offset="100%" stop-color="#906010"/>
  </radialGradient>
  <radialGradient id="gbx" cx="32%" cy="28%" r="68%">
    <stop offset="0%" stop-color="#2280cc"/>
    <stop offset="100%" stop-color="#0e5090"/>
  </radialGradient>
  <radialGradient id="gbb" cx="32%" cy="28%" r="68%">
    <stop offset="0%" stop-color="#cc2020"/>
    <stop offset="100%" stop-color="#880e0e"/>
  </radialGradient>
  <radialGradient id="gba" cx="32%" cy="28%" r="68%">
    <stop offset="0%" stop-color="#20a840"/>
    <stop offset="100%" stop-color="#0e6828"/>
  </radialGradient>

  <!-- Purple neon gradients -->
  <linearGradient id="gneon" x1="0" y1="0" x2="1" y2="0">
    <stop offset="0%" stop-color="#9933ff"/>
    <stop offset="50%" stop-color="#cc55ff"/>
    <stop offset="100%" stop-color="#6611cc"/>
  </linearGradient>
  <linearGradient id="gneon2" x1="0" y1="0" x2="1" y2="0">
    <stop offset="0%" stop-color="#6611cc"/>
    <stop offset="50%" stop-color="#cc55ff"/>
    <stop offset="100%" stop-color="#9933ff"/>
  </linearGradient>

  <!-- Hex grid texture – purple tint -->
  <pattern id="hexgrid" width="10" height="10" patternUnits="userSpaceOnUse">
    <path d="M5,0 L10,3 L10,7 L5,10 L0,7 L0,3 Z" fill="none" stroke="#9966cc" stroke-width="0.22"/>
  </pattern>
</defs>

<!-- Outer controller aura -->
<ellipse cx="100" cy="65" rx="85" ry="52" fill="#9933ff" opacity="0.028" filter="url(#gl)"/>

<!-- ===== GRIPS ===== -->
<!-- Left grip -->
<rect x="6" y="65" width="50" height="65" rx="20" fill="url(#ggrip)"/>
<rect x="6" y="65" width="50" height="65" rx="20" fill="url(#hexgrid)" opacity="0.06"/>
<rect x="6" y="65" width="50" height="65" rx="20" fill="none" stroke="#9933ff" stroke-width="0.9" stroke-opacity="0.42"/>
<rect x="9" y="95" width="44" height="2.2" rx="1.1" fill="url(#gneon)" opacity="0.75" filter="url(#gs)"/>
<rect x="11" y="107" width="40" height="16" rx="10" fill="#fff" opacity="0.016"/>

<!-- Right grip -->
<rect x="144" y="65" width="50" height="65" rx="20" fill="url(#ggrip)"/>
<rect x="144" y="65" width="50" height="65" rx="20" fill="url(#hexgrid)" opacity="0.06"/>
<rect x="144" y="65" width="50" height="65" rx="20" fill="none" stroke="#9933ff" stroke-width="0.9" stroke-opacity="0.42"/>
<rect x="147" y="95" width="44" height="2.2" rx="1.1" fill="url(#gneon2)" opacity="0.75" filter="url(#gs)"/>
<rect x="149" y="107" width="40" height="16" rx="10" fill="#fff" opacity="0.016"/>

<!-- ===== MAIN BODY ===== -->
<rect x="23" y="15" width="154" height="86" rx="27" fill="none" stroke="#9933ff" stroke-width="5" opacity="0.18" filter="url(#gm)"/>
<rect x="24" y="16" width="152" height="84" rx="26" fill="url(#gbody)"/>
<rect x="24" y="16" width="152" height="84" rx="26" fill="url(#hexgrid)" opacity="0.055"/>
<rect x="24" y="16" width="152" height="22" rx="26" fill="#fff" opacity="0.042"/>
<rect x="24" y="16" width="152" height="84" rx="26" fill="none" stroke="#9933ff" stroke-width="1.1" stroke-opacity="0.58"/>
<rect x="27" y="19" width="146" height="78" rx="23" fill="none" stroke="#fff" stroke-width="0.3" stroke-opacity="0.04"/>
<line x1="32" y1="60" x2="168" y2="60" stroke="#fff" stroke-width="0.25" stroke-opacity="0.05"/>

<!-- ===== TRIGGERS ===== -->
<path d="M22,14 Q20,2 36,1 L64,1 Q70,2 76,14 Z" fill="url(#gtl)" stroke="#9933ff" stroke-width="0.7" stroke-opacity="0.52"/>
<text x="49" y="9" text-anchor="middle" dominant-baseline="middle" font-family="Arial Narrow,Arial,sans-serif" font-size="5.8" font-weight="700" letter-spacing="0.5" fill="#cc99ff" opacity="0.92">LT</text>
<path d="M178,14 Q180,2 164,1 L136,1 Q130,2 124,14 Z" fill="url(#gtr)" stroke="#9933ff" stroke-width="0.7" stroke-opacity="0.52"/>
<text x="151" y="9" text-anchor="middle" dominant-baseline="middle" font-family="Arial Narrow,Arial,sans-serif" font-size="5.8" font-weight="700" letter-spacing="0.5" fill="#cc99ff" opacity="0.92">RT</text>

<!-- ===== BUMPERS ===== -->
<rect x="22" y="10" width="54" height="13" rx="6.5" fill="url(#gbump)" stroke="#9933ff" stroke-width="0.8" stroke-opacity="0.65"/>
<rect x="24" y="11" width="50" height="5" rx="4" fill="#fff" opacity="0.048"/>
<text x="49" y="16.5" text-anchor="middle" dominant-baseline="middle" font-family="Arial Narrow,Arial,sans-serif" font-size="6" font-weight="700" letter-spacing="0.6" fill="#bb77ff" opacity="0.95">LB</text>
<rect x="124" y="10" width="54" height="13" rx="6.5" fill="url(#gbump)" stroke="#9933ff" stroke-width="0.8" stroke-opacity="0.65"/>
<rect x="126" y="11" width="50" height="5" rx="4" fill="#fff" opacity="0.048"/>
<text x="151" y="16.5" text-anchor="middle" dominant-baseline="middle" font-family="Arial Narrow,Arial,sans-serif" font-size="6" font-weight="700" letter-spacing="0.6" fill="#bb77ff" opacity="0.95">RB</text>

<!-- ===== D-PAD (center at 67,77) ===== -->
<rect x="61" y="61" width="12" height="32" rx="4" fill="url(#gwell)" stroke="#9933ff" stroke-width="0.6" stroke-opacity="0.45"/>
<rect x="51" y="71" width="32" height="12" rx="4" fill="url(#gwell)" stroke="#9933ff" stroke-width="0.6" stroke-opacity="0.45"/>
<rect x="61" y="71" width="12" height="12" rx="2" fill="#060410"/>
<polygon points="67,63 64,67 70,67" fill="#bb55ff" opacity="0.78" filter="url(#gs)"/>
<polygon points="67,91 64,87 70,87" fill="#bb55ff" opacity="0.78" filter="url(#gs)"/>
<polygon points="53,77 57,74 57,80" fill="#bb55ff" opacity="0.78" filter="url(#gs)"/>
<polygon points="81,77 77,74 77,80" fill="#bb55ff" opacity="0.78" filter="url(#gs)"/>

<!-- ===== LEFT ANALOG STICK ===== -->
<circle cx="48" cy="40" r="13" fill="#9933ff" opacity="0.07" filter="url(#gs)"/>
<circle cx="48" cy="40" r="13" fill="url(#gwell)" stroke="#9933ff" stroke-width="0.85" stroke-opacity="0.52"/>
<circle cx="48" cy="40" r="9" fill="url(#gstick)"/>
<ellipse cx="45.2" cy="37.5" rx="2.8" ry="1.9" fill="#fff" opacity="0.1"/>
<circle cx="48" cy="40" r="9" fill="none" stroke="#9933ff" stroke-width="1.1" stroke-opacity="0.62" filter="url(#gs)"/>
<circle cx="48" cy="40" r="2.2" fill="#bb55ff" opacity="0.55"/>
<circle cx="48" cy="34" r="0.9" fill="#bb55ff" opacity="0.3"/>
<circle cx="48" cy="46" r="0.9" fill="#bb55ff" opacity="0.3"/>
<circle cx="42" cy="40" r="0.9" fill="#bb55ff" opacity="0.3"/>
<circle cx="54" cy="40" r="0.9" fill="#bb55ff" opacity="0.3"/>

<!-- ===== RIGHT ANALOG STICK ===== -->
<circle cx="120" cy="80" r="13" fill="#9933ff" opacity="0.07" filter="url(#gs)"/>
<circle cx="120" cy="80" r="13" fill="url(#gwell)" stroke="#9933ff" stroke-width="0.85" stroke-opacity="0.52"/>
<circle cx="120" cy="80" r="9" fill="url(#gstick)"/>
<ellipse cx="117.2" cy="77.5" rx="2.8" ry="1.9" fill="#fff" opacity="0.1"/>
<circle cx="120" cy="80" r="9" fill="none" stroke="#9933ff" stroke-width="1.1" stroke-opacity="0.62" filter="url(#gs)"/>
<circle cx="120" cy="80" r="2.2" fill="#bb55ff" opacity="0.55"/>
<circle cx="120" cy="74" r="0.9" fill="#bb55ff" opacity="0.3"/>
<circle cx="120" cy="86" r="0.9" fill="#bb55ff" opacity="0.3"/>
<circle cx="114" cy="80" r="0.9" fill="#bb55ff" opacity="0.3"/>
<circle cx="126" cy="80" r="0.9" fill="#bb55ff" opacity="0.3"/>

<!-- ===== ABXY HALOS – UNCHANGED ===== -->
<circle cx="148" cy="36" r="14" fill="#d4a820" opacity="0.17" filter="url(#gm)"/>
<circle cx="134" cy="52" r="14" fill="#2280cc" opacity="0.17" filter="url(#gm)"/>
<circle cx="162" cy="52" r="14" fill="#cc2020" opacity="0.17" filter="url(#gm)"/>
<circle cx="148" cy="68" r="14" fill="#20a840" opacity="0.17" filter="url(#gm)"/>

<!-- Y button -->
<circle cx="148" cy="36" r="9" fill="#1a1504" stroke="#d4a820" stroke-width="1.4"/>
<circle cx="148" cy="36" r="7.4" fill="url(#gby)"/>
<ellipse cx="145.5" cy="33.6" rx="2.6" ry="1.8" fill="#fff" opacity="0.24"/>
<text x="148" y="36.2" text-anchor="middle" dominant-baseline="middle" font-family="Arial Black,Impact,sans-serif" font-size="7.2" font-weight="900" fill="#ffe570">Y</text>

<!-- X button -->
<circle cx="134" cy="52" r="9" fill="#041220" stroke="#3d9dff" stroke-width="1.4"/>
<circle cx="134" cy="52" r="7.4" fill="url(#gbx)"/>
<ellipse cx="131.5" cy="49.6" rx="2.6" ry="1.8" fill="#fff" opacity="0.24"/>
<text x="134" y="52.2" text-anchor="middle" dominant-baseline="middle" font-family="Arial Black,Impact,sans-serif" font-size="7.2" font-weight="900" fill="#79c0ff">X</text>

<!-- B button -->
<circle cx="162" cy="52" r="9" fill="#1a0404" stroke="#ff4848" stroke-width="1.4"/>
<circle cx="162" cy="52" r="7.4" fill="url(#gbb)"/>
<ellipse cx="159.5" cy="49.6" rx="2.6" ry="1.8" fill="#fff" opacity="0.24"/>
<text x="162" y="52.2" text-anchor="middle" dominant-baseline="middle" font-family="Arial Black,Impact,sans-serif" font-size="7.2" font-weight="900" fill="#ff7a7a">B</text>

<!-- A button -->
<circle cx="148" cy="68" r="9" fill="#041504" stroke="#00e060" stroke-width="1.4"/>
<circle cx="148" cy="68" r="7.4" fill="url(#gba)"/>
<ellipse cx="145.5" cy="65.6" rx="2.6" ry="1.8" fill="#fff" opacity="0.24"/>
<text x="148" y="68.2" text-anchor="middle" dominant-baseline="middle" font-family="Arial Black,Impact,sans-serif" font-size="7.2" font-weight="900" fill="#58ff88">A</text>

<!-- ===== CENTER XBOX BUTTON – UNCHANGED ===== -->
<circle cx="100" cy="38" r="22" fill="#00ff80" opacity="0.11" filter="url(#gl)"/>
<circle cx="100" cy="38" r="14" fill="#07180e" stroke="#00ff7a" stroke-width="2.2" filter="url(#gs)"/>
<circle cx="100" cy="38" r="11" fill="url(#gxbox)"/>
<ellipse cx="97" cy="35.4" rx="3.5" ry="2.2" fill="#fff" opacity="0.26"/>
<line x1="95.4" y1="33.4" x2="104.6" y2="42.6" stroke="#fff" stroke-width="2.5" stroke-linecap="round" opacity="0.92"/>
<line x1="104.6" y1="33.4" x2="95.4" y2="42.6" stroke="#fff" stroke-width="2.5" stroke-linecap="round" opacity="0.92"/>

<!-- ===== VIEW / MENU BUTTONS ===== -->
<rect x="85" y="55" width="7" height="5" rx="1.5" fill="#cc88ff" opacity="0.18"/>
<rect x="83" y="57" width="7" height="5" rx="1.5" fill="#0e0a20" stroke="#cc88ff" stroke-width="0.5" stroke-opacity="0.3"/>
<rect x="110" y="54" width="9" height="1.4" rx="0.7" fill="#cc88ff" opacity="0.34"/>
<rect x="110" y="57" width="9" height="1.4" rx="0.7" fill="#cc88ff" opacity="0.34"/>
<rect x="110" y="60" width="9" height="1.4" rx="0.7" fill="#cc88ff" opacity="0.34"/>
</svg>
